<?xml version="1.0" encoding="UTF-8"?>
<svg id="Layer_1" data-name="Layer 1" xmlns="http://www.w3.org/2000/svg" viewBox="0 0 399.76 259.01">
  <defs>
    <style>
      .cls-1 {
        fill: #fff;
      }

      .cls-2 {
        opacity: .15;
      }
    </style>
  </defs>
  <g class="cls-2">
    <g>
      <g>
        <g>
          <polygon class="cls-1" points="0 131.5 0 136.21 .01 136.21 .01 164 4.72 164 4.72 131.5 0 131.5"/>
          <g>
            <polygon class="cls-1" points="0 106.53 0 111.24 .01 111.24 .01 128.55 4.72 128.55 4.72 106.53 0 106.53"/>
            <polygon class="cls-1" points=".13 81.56 .13 98.88 0 98.88 0 103.58 4.83 103.58 4.83 86.27 7.67 86.27 7.67 114.06 12.37 114.06 12.37 81.56 .13 81.56"/>
            <polygon class="cls-1" points="27.45 127.48 27.45 149.5 22.75 149.5 22.75 132.19 19.91 132.19 19.91 149.5 7.67 149.5 7.67 117.01 12.37 117.01 12.37 144.8 15.21 144.8 15.21 127.48 27.45 127.48"/>
            <polygon class="cls-1" points="15.33 124.53 15.33 102.51 20.03 102.51 20.03 119.83 22.87 119.83 22.87 102.51 35.11 102.51 35.11 135.01 30.41 135.01 30.41 107.22 27.57 107.22 27.57 124.53 15.33 124.53"/>
          </g>
        </g>
        <g>
          <g>
            <polygon class="cls-1" points=".13 56.42 .13 73.73 0 73.73 0 78.44 4.84 78.44 4.84 61.12 7.67 61.12 7.67 78.44 12.38 78.44 12.38 56.42 .13 56.42"/>
            <polygon class="cls-1" points=".25 53.47 .25 31.45 4.95 31.45 4.95 48.76 7.79 48.76 7.79 31.45 20.03 31.45 20.03 63.94 15.33 63.94 15.33 36.15 12.49 36.15 12.49 53.47 .25 53.47"/>
          </g>
          <g>
            <polygon class="cls-1" points="7.79 23.79 4.95 23.79 4.95 0 .25 0 .25 28.49 12.49 28.49 12.49 11.18 15.33 11.18 15.33 28.49 20.03 28.49 20.03 6.47 7.79 6.47 7.79 23.79"/>
            <rect class="cls-1" x="7.9" width="12.24" height="3.52"/>
            <rect class="cls-1" x="22.98" width="4.7" height="14"/>
            <polygon class="cls-1" points="42.77 27.43 42.77 49.45 38.07 49.45 38.07 32.13 35.23 32.13 35.23 49.45 22.98 49.45 22.98 16.95 27.69 16.95 27.69 44.74 30.53 44.74 30.53 27.43 42.77 27.43"/>
            <polygon class="cls-1" points="30.64 24.48 30.64 2.46 35.34 2.46 35.34 19.77 38.18 19.77 38.18 2.46 50.43 2.46 50.43 34.95 45.72 34.95 45.72 7.16 42.89 7.16 42.89 24.48 30.64 24.48"/>
          </g>
        </g>
        <g>
          <g>
            <polygon class="cls-1" points="35.11 77.37 35.11 99.39 30.41 99.39 30.41 82.07 27.57 82.07 27.57 99.39 15.33 99.39 15.33 66.89 20.03 66.89 20.03 94.68 22.87 94.68 22.87 77.37 35.11 77.37"/>
            <polygon class="cls-1" points="22.98 74.42 22.98 52.4 27.69 52.4 27.69 69.71 30.52 69.71 30.52 52.4 42.77 52.4 42.77 84.89 38.06 84.89 38.06 57.1 35.23 57.1 35.23 74.42 22.98 74.42"/>
            <polygon class="cls-1" points="57.85 98.32 57.85 120.34 53.14 120.34 53.14 103.03 50.31 103.03 50.31 120.34 38.06 120.34 38.06 87.85 42.77 87.85 42.77 115.64 45.6 115.64 45.6 98.32 57.85 98.32"/>
            <polygon class="cls-1" points="45.72 95.37 45.72 73.35 50.42 73.35 50.42 90.67 53.26 90.67 53.26 73.35 65.5 73.35 65.5 105.85 60.8 105.85 60.8 78.06 57.96 78.06 57.96 95.37 45.72 95.37"/>
          </g>
          <g>
            <polygon class="cls-1" points="65.5 48.38 65.5 70.4 60.8 70.4 60.8 53.08 57.96 53.08 57.96 70.4 45.72 70.4 45.72 37.9 50.42 37.9 50.42 65.69 53.26 65.69 53.26 48.38 65.5 48.38"/>
            <polygon class="cls-1" points="53.37 45.43 53.37 23.41 58.08 23.41 58.08 40.72 60.91 40.72 60.91 23.41 73.16 23.41 73.16 55.9 68.45 55.9 68.45 28.11 65.62 28.11 65.62 45.43 53.37 45.43"/>
            <polygon class="cls-1" points="88.24 69.33 88.24 91.35 83.53 91.35 83.53 74.04 80.7 74.04 80.7 91.35 68.45 91.35 68.45 58.86 73.16 58.86 73.16 86.65 75.99 86.65 75.99 69.33 88.24 69.33"/>
            <polygon class="cls-1" points="76.11 66.38 76.11 44.36 80.81 44.36 80.81 61.68 83.65 61.68 83.65 44.36 95.89 44.36 95.89 76.86 91.19 76.86 91.19 49.07 88.35 49.07 88.35 66.38 76.11 66.38"/>
          </g>
        </g>
      </g>
      <g>
        <polygon class="cls-1" points=".13 226.8 .13 244.12 0 244.12 0 248.82 4.84 248.82 4.84 231.51 7.67 231.51 7.67 248.82 12.38 248.82 12.38 226.8 .13 226.8"/>
        <polygon class="cls-1" points=".25 223.85 .25 201.83 4.95 201.83 4.95 219.15 7.79 219.15 7.79 201.83 20.03 201.83 20.03 234.33 15.33 234.33 15.33 206.54 12.49 206.54 12.49 223.85 .25 223.85"/>
      </g>
      <g>
        <polygon class="cls-1" points="4.84 259.01 4.84 256.48 7.67 256.48 7.67 259.01 12.38 259.01 12.38 251.77 .13 251.77 .13 259.01 4.84 259.01"/>
        <g>
          <polygon class="cls-1" points="27.57 259.01 27.57 252.46 30.41 252.46 30.41 259.01 35.11 259.01 35.11 247.75 22.87 247.75 22.87 259.01 27.57 259.01"/>
          <rect class="cls-1" x="15.33" y="237.28" width="4.7" height="21.73"/>
          <polygon class="cls-1" points="22.98 244.8 22.98 222.78 27.69 222.78 27.69 240.1 30.52 240.1 30.52 222.78 42.77 222.78 42.77 255.28 38.06 255.28 38.06 227.49 35.23 227.49 35.23 244.8 22.98 244.8"/>
          <rect class="cls-1" x="38.06" y="258.23" width="4.7" height=".78"/>
          <rect class="cls-1" x="45.72" y="243.74" width="4.7" height="15.27"/>
          <polygon class="cls-1" points="57.96 259.01 57.96 248.44 60.8 248.44 60.8 259.01 65.5 259.01 65.5 243.74 53.26 243.74 53.26 259.01 57.96 259.01"/>
        </g>
      </g>
      <g>
        <g>
          <g>
            <polygon class="cls-1" points="20.03 176.87 20.03 198.89 15.33 198.89 15.33 181.57 12.49 181.57 12.49 198.89 .25 198.89 .25 166.39 4.95 166.39 4.95 194.18 7.79 194.18 7.79 176.87 20.03 176.87"/>
            <polygon class="cls-1" points="7.91 173.92 7.91 151.9 12.61 151.9 12.61 169.21 15.45 169.21 15.45 151.9 27.69 151.9 27.69 184.39 22.99 184.39 22.99 156.6 20.15 156.6 20.15 173.92 7.91 173.92"/>
            <polygon class="cls-1" points="42.77 197.82 42.77 219.84 38.07 219.84 38.07 202.53 35.23 202.53 35.23 219.84 22.99 219.84 22.99 187.34 27.69 187.34 27.69 215.13 30.53 215.13 30.53 197.82 42.77 197.82"/>
            <polygon class="cls-1" points="30.64 194.87 30.64 172.85 35.35 172.85 35.35 190.16 38.18 190.16 38.18 172.85 50.43 172.85 50.43 205.34 45.72 205.34 45.72 177.56 42.89 177.56 42.89 194.87 30.64 194.87"/>
          </g>
          <g>
            <polygon class="cls-1" points="50.43 147.88 50.43 169.9 45.72 169.9 45.72 152.58 42.89 152.58 42.89 169.9 30.64 169.9 30.64 137.4 35.35 137.4 35.35 165.19 38.18 165.19 38.18 147.88 50.43 147.88"/>
            <polygon class="cls-1" points="38.3 144.93 38.3 122.91 43 122.91 43 140.22 45.84 140.22 45.84 122.91 58.08 122.91 58.08 155.4 53.38 155.4 53.38 127.61 50.54 127.61 50.54 144.93 38.3 144.93"/>
            <polygon class="cls-1" points="73.16 168.83 73.16 190.85 68.46 190.85 68.46 173.54 65.62 173.54 65.62 190.85 53.38 190.85 53.38 158.36 58.08 158.36 58.08 186.15 60.92 186.15 60.92 168.83 73.16 168.83"/>
            <polygon class="cls-1" points="61.03 165.88 61.03 143.86 65.74 143.86 65.74 161.18 68.57 161.18 68.57 143.86 80.82 143.86 80.82 176.36 76.11 176.36 76.11 148.57 73.28 148.57 73.28 165.88 61.03 165.88"/>
          </g>
        </g>
        <g>
          <g>
            <polygon class="cls-1" points="65.5 218.77 65.5 240.79 60.8 240.79 60.8 223.48 57.96 223.48 57.96 240.79 45.72 240.79 45.72 208.3 50.42 208.3 50.42 236.09 53.26 236.09 53.26 218.77 65.5 218.77"/>
            <polygon class="cls-1" points="53.38 215.82 53.38 193.8 58.08 193.8 58.08 211.12 60.92 211.12 60.92 193.8 73.16 193.8 73.16 226.3 68.46 226.3 68.46 198.51 65.62 198.51 65.62 215.82 53.38 215.82"/>
            <polygon class="cls-1" points="80.7 259.01 80.7 244.43 83.54 244.43 83.54 259.01 88.24 259.01 88.24 239.72 76 239.72 76 257.04 73.16 257.04 73.16 229.25 68.46 229.25 68.46 259.01 80.7 259.01"/>
            <polygon class="cls-1" points="76.11 236.78 76.11 214.75 80.82 214.75 80.82 232.07 83.65 232.07 83.65 214.75 95.9 214.75 95.9 247.25 91.19 247.25 91.19 219.46 88.36 219.46 88.36 236.78 76.11 236.78"/>
          </g>
          <g>
            <polygon class="cls-1" points="95.9 189.78 95.9 211.8 91.19 211.8 91.19 194.49 88.36 194.49 88.36 211.8 76.11 211.8 76.11 179.31 80.82 179.31 80.82 207.1 83.65 207.1 83.65 189.78 95.9 189.78"/>
            <polygon class="cls-1" points="83.77 186.83 83.77 164.81 88.47 164.81 88.47 182.13 91.31 182.13 91.31 164.81 103.55 164.81 103.55 197.31 98.85 197.31 98.85 169.52 96.01 169.52 96.01 186.83 83.77 186.83"/>
            <polygon class="cls-1" points="118.63 210.73 118.63 232.76 113.93 232.76 113.93 215.44 111.09 215.44 111.09 232.76 98.85 232.76 98.85 200.26 103.55 200.26 103.55 228.05 106.39 228.05 106.39 210.73 118.63 210.73"/>
            <polygon class="cls-1" points="106.5 207.79 106.5 185.77 111.21 185.77 111.21 203.08 114.04 203.08 114.04 185.77 126.29 185.77 126.29 218.26 121.58 218.26 121.58 190.47 118.75 190.47 118.75 207.79 106.5 207.79"/>
          </g>
        </g>
        <g>
          <g>
            <polygon class="cls-1" points="80.82 118.71 80.82 140.73 76.11 140.73 76.11 123.42 73.28 123.42 73.28 140.73 61.03 140.73 61.03 108.24 65.74 108.24 65.74 136.03 68.57 136.03 68.57 118.71 80.82 118.71"/>
            <polygon class="cls-1" points="68.69 115.76 68.69 93.74 73.39 93.74 73.39 111.06 76.23 111.06 76.23 93.74 88.47 93.74 88.47 126.24 83.77 126.24 83.77 98.45 80.93 98.45 80.93 115.76 68.69 115.76"/>
            <polygon class="cls-1" points="103.56 139.67 103.56 161.69 98.85 161.69 98.85 144.37 96.02 144.37 96.02 161.69 83.77 161.69 83.77 129.19 88.47 129.19 88.47 156.98 91.31 156.98 91.31 139.67 103.56 139.67"/>
            <polygon class="cls-1" points="91.43 136.72 91.43 114.7 96.13 114.7 96.13 132.01 98.97 132.01 98.97 114.7 111.21 114.7 111.21 147.19 106.51 147.19 106.51 119.4 103.67 119.4 103.67 136.72 91.43 136.72"/>
          </g>
          <g>
            <polygon class="cls-1" points="111.21 89.72 111.21 111.74 106.51 111.74 106.51 94.43 103.67 94.43 103.67 111.74 91.43 111.74 91.43 79.25 96.13 79.25 96.13 107.04 98.97 107.04 98.97 89.72 111.21 89.72"/>
            <polygon class="cls-1" points="99.08 86.78 99.08 64.75 103.79 64.75 103.79 82.07 106.62 82.07 106.62 64.75 118.87 64.75 118.87 97.25 114.16 97.25 114.16 69.46 111.33 69.46 111.33 86.78 99.08 86.78"/>
            <polygon class="cls-1" points="133.95 110.68 133.95 132.7 129.24 132.7 129.24 115.38 126.41 115.38 126.41 132.7 114.16 132.7 114.16 100.2 118.87 100.2 118.87 127.99 121.7 127.99 121.7 110.68 133.95 110.68"/>
            <polygon class="cls-1" points="121.82 107.73 121.82 85.71 126.52 85.71 126.52 103.02 129.36 103.02 129.36 85.71 141.6 85.71 141.6 118.2 136.9 118.2 136.9 90.41 134.06 90.41 134.06 107.73 121.82 107.73"/>
          </g>
        </g>
        <g>
          <g>
            <polygon class="cls-1" points="126.29 160.62 126.29 182.64 121.58 182.64 121.58 165.32 118.75 165.32 118.75 182.64 106.5 182.64 106.5 150.14 111.21 150.14 111.21 177.93 114.04 177.93 114.04 160.62 126.29 160.62"/>
            <polygon class="cls-1" points="114.16 157.67 114.16 135.65 118.86 135.65 118.86 152.96 121.7 152.96 121.7 135.65 133.94 135.65 133.94 168.14 129.24 168.14 129.24 140.35 126.4 140.35 126.4 157.67 114.16 157.67"/>
            <polygon class="cls-1" points="149.02 181.57 149.02 203.59 144.32 203.59 144.32 186.28 141.48 186.28 141.48 203.59 129.24 203.59 129.24 171.1 133.94 171.1 133.94 198.89 136.78 198.89 136.78 181.57 149.02 181.57"/>
            <polygon class="cls-1" points="136.9 178.62 136.9 156.6 141.6 156.6 141.6 173.92 144.44 173.92 144.44 156.6 156.68 156.6 156.68 189.1 151.98 189.1 151.98 161.31 149.14 161.31 149.14 178.62 136.9 178.62"/>
          </g>
          <g>
            <polygon class="cls-1" points="156.68 131.63 156.68 153.65 151.98 153.65 151.98 136.33 149.14 136.33 149.14 153.65 136.9 153.65 136.9 121.15 141.6 121.15 141.6 148.94 144.44 148.94 144.44 131.63 156.68 131.63"/>
            <polygon class="cls-1" points="144.55 128.68 144.55 106.66 149.26 106.66 149.26 123.97 152.09 123.97 152.09 106.66 164.34 106.66 164.34 139.15 159.63 139.15 159.63 111.36 156.8 111.36 156.8 128.68 144.55 128.68"/>
            <polygon class="cls-1" points="179.42 152.58 179.42 174.6 174.71 174.6 174.71 157.29 171.88 157.29 171.88 174.6 159.63 174.6 159.63 142.11 164.34 142.11 164.34 169.9 167.17 169.9 167.17 152.58 179.42 152.58"/>
            <polygon class="cls-1" points="167.29 149.63 167.29 127.61 171.99 127.61 171.99 144.93 174.83 144.93 174.83 127.61 187.07 127.61 187.07 160.11 182.37 160.11 182.37 132.32 179.53 132.32 179.53 149.63 167.29 149.63"/>
          </g>
        </g>
      </g>
      <g>
        <g>
          <g>
            <rect class="cls-1" x="91.31" y="249.39" width="4.7" height="9.62"/>
            <polygon class="cls-1" points="111.21 239.6 114.04 239.6 114.04 259.01 118.75 259.01 118.75 234.89 106.5 234.89 106.5 252.21 103.67 252.21 103.67 234.89 98.96 234.89 98.96 256.91 111.21 256.91 111.21 239.6"/>
            <rect class="cls-1" x="129.24" y="255.85" width="12.24" height="3.16"/>
            <rect class="cls-1" x="121.7" y="255.85" width="4.7" height="3.16"/>
          </g>
          <g>
            <polygon class="cls-1" points="141.49 230.87 141.49 252.89 136.78 252.89 136.78 235.58 133.95 235.58 133.95 252.89 121.7 252.89 121.7 220.4 126.4 220.4 126.4 248.19 129.24 248.19 129.24 230.87 141.49 230.87"/>
            <polygon class="cls-1" points="129.36 227.92 129.36 205.9 134.06 205.9 134.06 223.22 136.9 223.22 136.9 205.9 149.14 205.9 149.14 238.4 144.44 238.4 144.44 210.61 141.6 210.61 141.6 227.92 129.36 227.92"/>
            <polygon class="cls-1" points="156.68 259.01 156.68 256.53 159.52 256.53 159.52 259.01 164.22 259.01 164.22 251.83 151.98 251.83 151.98 259.01 156.68 259.01"/>
            <rect class="cls-1" x="144.44" y="241.35" width="4.7" height="17.66"/>
            <polygon class="cls-1" points="164.34 231.56 167.17 231.56 167.17 259.01 171.88 259.01 171.88 226.86 159.63 226.86 159.63 244.17 156.8 244.17 156.8 226.86 152.09 226.86 152.09 248.88 164.34 248.88 164.34 231.56"/>
          </g>
        </g>
        <g>
          <polygon class="cls-1" points="187.07 259.01 187.07 252.51 189.91 252.51 189.91 259.01 194.61 259.01 194.61 247.81 182.37 247.81 182.37 259.01 187.07 259.01"/>
          <rect class="cls-1" x="174.83" y="247.81" width="4.7" height="11.2"/>
        </g>
        <g>
          <g>
            <polygon class="cls-1" points="171.88 201.71 171.88 223.73 167.17 223.73 167.17 206.42 164.34 206.42 164.34 223.73 152.09 223.73 152.09 191.24 156.8 191.24 156.8 219.02 159.63 219.02 159.63 201.71 171.88 201.71"/>
            <polygon class="cls-1" points="159.75 198.76 159.75 176.74 164.45 176.74 164.45 194.06 167.29 194.06 167.29 176.74 179.53 176.74 179.53 209.24 174.83 209.24 174.83 181.45 171.99 181.45 171.99 198.76 159.75 198.76"/>
            <polygon class="cls-1" points="194.61 222.66 194.61 244.68 189.91 244.68 189.91 227.37 187.07 227.37 187.07 244.68 174.83 244.68 174.83 212.19 179.53 212.19 179.53 239.98 182.37 239.98 182.37 222.66 194.61 222.66"/>
            <polygon class="cls-1" points="182.48 219.71 182.48 197.69 187.19 197.69 187.19 215.01 190.03 215.01 190.03 197.69 202.27 197.69 202.27 230.19 197.57 230.19 197.57 202.4 194.73 202.4 194.73 219.71 182.48 219.71"/>
          </g>
          <g>
            <polygon class="cls-1" points="202.27 172.72 202.27 194.74 197.57 194.74 197.57 177.43 194.73 177.43 194.73 194.74 182.48 194.74 182.48 162.25 187.19 162.25 187.19 190.04 190.03 190.04 190.03 172.72 202.27 172.72"/>
            <polygon class="cls-1" points="190.14 169.77 190.14 147.75 194.85 147.75 194.85 165.07 197.68 165.07 197.68 147.75 209.93 147.75 209.93 180.25 205.22 180.25 205.22 152.46 202.39 152.46 202.39 169.77 190.14 169.77"/>
            <polygon class="cls-1" points="225.01 193.67 225.01 215.7 220.3 215.7 220.3 198.38 217.47 198.38 217.47 215.7 205.22 215.7 205.22 183.2 209.93 183.2 209.93 210.99 212.76 210.99 212.76 193.67 225.01 193.67"/>
            <polygon class="cls-1" points="212.88 190.73 212.88 168.7 217.58 168.7 217.58 186.02 220.42 186.02 220.42 168.7 232.66 168.7 232.66 201.2 227.96 201.2 227.96 173.41 225.12 173.41 225.12 190.73 212.88 190.73"/>
          </g>
        </g>
        <g>
          <g>
            <polygon class="cls-1" points="209.81 259.01 209.81 248.32 212.64 248.32 212.64 259.01 217.35 259.01 217.35 243.61 205.1 243.61 205.1 259.01 209.81 259.01"/>
            <rect class="cls-1" x="197.56" y="233.14" width="4.7" height="25.87"/>
            <polygon class="cls-1" points="205.22 240.67 205.22 218.64 209.92 218.64 209.92 235.96 212.76 235.96 212.76 218.64 225 218.64 225 251.14 220.3 251.14 220.3 223.35 217.46 223.35 217.46 240.67 205.22 240.67"/>
            <rect class="cls-1" x="220.3" y="254.09" width="4.7" height="4.92"/>
            <polygon class="cls-1" points="240.2 259.01 240.2 244.3 243.03 244.3 243.03 259.01 247.74 259.01 247.74 239.6 235.49 239.6 235.49 256.91 232.66 256.91 232.66 239.6 227.95 239.6 227.95 259.01 240.2 259.01"/>
          </g>
          <g>
            <polygon class="cls-1" points="247.74 214.63 247.74 236.65 243.03 236.65 243.03 219.33 240.2 219.33 240.2 236.65 227.95 236.65 227.95 204.15 232.66 204.15 232.66 231.94 235.49 231.94 235.49 214.63 247.74 214.63"/>
            <polygon class="cls-1" points="235.61 211.68 235.61 189.66 240.31 189.66 240.31 206.97 243.15 206.97 243.15 189.66 255.39 189.66 255.39 222.15 250.69 222.15 250.69 194.36 247.85 194.36 247.85 211.68 235.61 211.68"/>
            <polygon class="cls-1" points="270.48 235.58 270.48 257.6 265.77 257.6 265.77 240.28 262.93 240.28 262.93 257.6 250.69 257.6 250.69 225.1 255.39 225.1 255.39 252.89 258.23 252.89 258.23 235.58 270.48 235.58"/>
            <polygon class="cls-1" points="258.35 232.63 258.35 210.61 263.05 210.61 263.05 227.92 265.89 227.92 265.89 210.61 278.13 210.61 278.13 243.1 273.43 243.1 273.43 215.32 270.59 215.32 270.59 232.63 258.35 232.63"/>
          </g>
        </g>
      </g>
      <g>
        <rect class="cls-1" x="281.2" y="255.97" width="12.24" height="3.04"/>
        <rect class="cls-1" x="273.66" y="245.5" width="4.7" height="13.51"/>
        <polygon class="cls-1" points="293.56 235.71 296.4 235.71 296.4 259.01 301.1 259.01 301.1 231 288.86 231 288.86 248.32 286.02 248.32 286.02 231 281.32 231 281.32 253.02 293.56 253.02 293.56 235.71"/>
        <polygon class="cls-1" points="316.3 259.01 316.3 256.66 319.14 256.66 319.14 259.01 323.84 259.01 323.84 251.96 311.59 251.96 311.59 259.01 316.3 259.01"/>
        <rect class="cls-1" x="304.05" y="251.96" width="4.7" height="7.05"/>
      </g>
    </g>
    <g>
      <g>
        <polygon class="cls-1" points="60.92 0 60.92 15.46 58.08 15.46 58.08 0 53.38 0 53.38 20.17 65.62 20.17 65.62 2.85 68.46 2.85 68.46 20.17 73.16 20.17 73.16 0 60.92 0"/>
        <rect class="cls-1" x="76.11" width="4.7" height="5.67"/>
      </g>
      <g>
        <g>
          <polygon class="cls-1" points="95.89 19.1 95.89 41.12 91.19 41.12 91.19 23.8 88.35 23.8 88.35 41.12 76.11 41.12 76.11 8.62 80.81 8.62 80.81 36.41 83.65 36.41 83.65 19.1 95.89 19.1"/>
          <polygon class="cls-1" points="91.31 0 91.31 11.44 88.47 11.44 88.47 0 83.77 0 83.77 16.15 96.01 16.15 96.01 0 91.31 0"/>
          <rect class="cls-1" x="98.85" width="4.7" height="26.62"/>
          <polygon class="cls-1" points="118.63 40.05 118.63 62.07 113.93 62.07 113.93 44.75 111.09 44.75 111.09 62.07 98.85 62.07 98.85 29.57 103.55 29.57 103.55 57.36 106.39 57.36 106.39 40.05 118.63 40.05"/>
          <polygon class="cls-1" points="106.5 37.1 106.5 15.08 111.21 15.08 111.21 32.39 114.04 32.39 114.04 15.08 126.29 15.08 126.29 47.57 121.58 47.57 121.58 19.79 118.75 19.79 118.75 37.1 106.5 37.1"/>
        </g>
        <g>
          <rect class="cls-1" x="121.58" width="4.7" height="12.13"/>
          <polygon class="cls-1" points="114.04 0 114.04 7.42 111.21 7.42 111.21 0 106.5 0 106.5 12.13 118.75 12.13 118.75 0 114.04 0"/>
          <polygon class="cls-1" points="149.02 11.06 149.02 33.08 144.32 33.08 144.32 15.77 141.48 15.77 141.48 33.08 129.24 33.08 129.24 .59 133.94 .59 133.94 28.37 136.78 28.37 136.78 11.06 149.02 11.06"/>
          <polygon class="cls-1" points="144.43 0 144.43 3.41 141.6 3.41 141.6 0 136.89 0 136.89 8.11 149.14 8.11 149.14 0 144.43 0"/>
          <rect class="cls-1" x="151.97" width="4.7" height="18.59"/>
        </g>
      </g>
      <g>
        <rect class="cls-1" x="159.63" width="12.24" height="3.92"/>
        <rect class="cls-1" x="174.71" width="4.7" height="3.92"/>
      </g>
      <g>
        <g>
          <polygon class="cls-1" points="141.6 60.44 141.6 82.46 136.9 82.46 136.9 65.15 134.06 65.15 134.06 82.46 121.82 82.46 121.82 49.97 126.52 49.97 126.52 77.76 129.36 77.76 129.36 60.44 141.6 60.44"/>
          <polygon class="cls-1" points="129.47 57.49 129.47 35.47 134.18 35.47 134.18 52.79 137.01 52.79 137.01 35.47 149.26 35.47 149.26 67.97 144.55 67.97 144.55 40.18 141.72 40.18 141.72 57.49 129.47 57.49"/>
          <polygon class="cls-1" points="164.34 81.4 164.34 103.42 159.64 103.42 159.64 86.1 156.8 86.1 156.8 103.42 144.55 103.42 144.55 70.92 149.26 70.92 149.26 98.71 152.1 98.71 152.1 81.4 164.34 81.4"/>
          <polygon class="cls-1" points="152.21 78.45 152.21 56.43 156.92 56.43 156.92 73.74 159.75 73.74 159.75 56.43 172 56.43 172 88.92 167.29 88.92 167.29 61.13 164.46 61.13 164.46 78.45 152.21 78.45"/>
        </g>
        <g>
          <polygon class="cls-1" points="172 31.45 172 53.47 167.29 53.47 167.29 36.16 164.46 36.16 164.46 53.47 152.21 53.47 152.21 20.98 156.92 20.98 156.92 48.77 159.75 48.77 159.75 31.45 172 31.45"/>
          <polygon class="cls-1" points="159.87 28.5 159.87 6.48 164.57 6.48 164.57 23.8 167.41 23.8 167.41 6.48 179.65 6.48 179.65 38.98 174.95 38.98 174.95 11.19 172.11 11.19 172.11 28.5 159.87 28.5"/>
          <polygon class="cls-1" points="194.73 52.41 194.73 74.43 190.03 74.43 190.03 57.11 187.19 57.11 187.19 74.43 174.95 74.43 174.95 41.93 179.65 41.93 179.65 69.72 182.49 69.72 182.49 52.41 194.73 52.41"/>
          <polygon class="cls-1" points="182.6 49.46 182.6 27.44 187.31 27.44 187.31 44.75 190.14 44.75 190.14 27.44 202.39 27.44 202.39 59.93 197.68 59.93 197.68 32.14 194.85 32.14 194.85 49.46 182.6 49.46"/>
        </g>
      </g>
      <g>
        <g>
          <polygon class="cls-1" points="187.07 102.35 187.07 124.37 182.37 124.37 182.37 107.05 179.53 107.05 179.53 124.37 167.29 124.37 167.29 91.87 171.99 91.87 171.99 119.66 174.83 119.66 174.83 102.35 187.07 102.35"/>
          <polygon class="cls-1" points="174.94 99.4 174.94 77.38 179.65 77.38 179.65 94.69 182.48 94.69 182.48 77.38 194.73 77.38 194.73 109.87 190.02 109.87 190.02 82.08 187.19 82.08 187.19 99.4 174.94 99.4"/>
          <polygon class="cls-1" points="209.81 123.3 209.81 145.32 205.1 145.32 205.1 128.01 202.27 128.01 202.27 145.32 190.02 145.32 190.02 112.83 194.73 112.83 194.73 140.62 197.56 140.62 197.56 123.3 209.81 123.3"/>
          <polygon class="cls-1" points="197.68 120.35 197.68 98.33 202.38 98.33 202.38 115.65 205.22 115.65 205.22 98.33 217.46 98.33 217.46 130.83 212.76 130.83 212.76 103.04 209.92 103.04 209.92 120.35 197.68 120.35"/>
        </g>
        <g>
          <polygon class="cls-1" points="217.46 73.36 217.46 95.38 212.76 95.38 212.76 78.06 209.92 78.06 209.92 95.38 197.68 95.38 197.68 62.88 202.38 62.88 202.38 90.67 205.22 90.67 205.22 73.36 217.46 73.36"/>
          <polygon class="cls-1" points="205.34 70.41 205.34 48.39 210.04 48.39 210.04 65.7 212.88 65.7 212.88 48.39 225.12 48.39 225.12 80.88 220.42 80.88 220.42 53.09 217.58 53.09 217.58 70.41 205.34 70.41"/>
          <polygon class="cls-1" points="240.2 94.31 240.2 116.33 235.5 116.33 235.5 99.02 232.66 99.02 232.66 116.33 220.42 116.33 220.42 83.84 225.12 83.84 225.12 111.63 227.96 111.63 227.96 94.31 240.2 94.31"/>
          <polygon class="cls-1" points="228.07 91.36 228.07 69.34 232.78 69.34 232.78 86.66 235.61 86.66 235.61 69.34 247.86 69.34 247.86 101.84 243.15 101.84 243.15 74.05 240.32 74.05 240.32 91.36 228.07 91.36"/>
        </g>
      </g>
      <g>
        <g>
          <polygon class="cls-1" points="190.14 19.6 187.31 19.6 187.31 0 182.6 0 182.6 24.31 194.85 24.31 194.85 7 197.68 7 197.68 24.31 202.39 24.31 202.39 2.29 190.14 2.29 190.14 19.6"/>
          <rect class="cls-1" x="205.34" width="4.7" height="9.82"/>
          <polygon class="cls-1" points="225.12 23.24 225.12 45.26 220.42 45.26 220.42 27.95 217.58 27.95 217.58 45.26 205.34 45.26 205.34 12.77 210.04 12.77 210.04 40.56 212.88 40.56 212.88 23.24 225.12 23.24"/>
          <polygon class="cls-1" points="220.54 0 220.54 15.59 217.7 15.59 217.7 0 212.99 0 212.99 20.29 225.24 20.29 225.24 2.98 228.08 2.98 228.08 30.77 232.78 30.77 232.78 0 220.54 0"/>
        </g>
        <g>
          <polygon class="cls-1" points="243.27 0 243.27 11.57 240.44 11.57 240.44 0 235.73 0 235.73 16.27 247.98 16.27 247.98 0 243.27 0"/>
          <rect class="cls-1" x="250.81" width="4.7" height="16.27"/>
          <rect class="cls-1" x="258.47" width="4.7" height="1.78"/>
        </g>
      </g>
      <g>
        <g>
          <polygon class="cls-1" points="247.86 44.19 247.86 66.22 243.15 66.22 243.15 48.9 240.32 48.9 240.32 66.22 228.07 66.22 228.07 33.72 232.78 33.72 232.78 61.51 235.61 61.51 235.61 44.19 247.86 44.19"/>
          <polygon class="cls-1" points="235.73 41.25 235.73 19.22 240.43 19.22 240.43 36.54 243.27 36.54 243.27 19.22 255.51 19.22 255.51 51.72 250.81 51.72 250.81 23.93 247.97 23.93 247.97 41.25 235.73 41.25"/>
          <polygon class="cls-1" points="270.59 65.15 270.59 87.17 265.89 87.17 265.89 69.85 263.05 69.85 263.05 87.17 250.81 87.17 250.81 54.67 255.51 54.67 255.51 82.46 258.35 82.46 258.35 65.15 270.59 65.15"/>
          <polygon class="cls-1" points="258.46 62.2 258.46 40.18 263.17 40.18 263.17 57.49 266 57.49 266 40.18 278.25 40.18 278.25 72.67 273.54 72.67 273.54 44.88 270.71 44.88 270.71 62.2 258.46 62.2"/>
        </g>
        <g>
          <polygon class="cls-1" points="278.25 15.2 278.25 37.23 273.54 37.23 273.54 19.91 270.71 19.91 270.71 37.23 258.46 37.23 258.46 4.73 263.17 4.73 263.17 32.52 266 32.52 266 15.2 278.25 15.2"/>
          <polygon class="cls-1" points="273.66 0 273.66 7.55 270.82 7.55 270.82 0 266.12 0 266.12 12.26 278.36 12.26 278.36 0 273.66 0"/>
          <rect class="cls-1" x="281.2" width="4.7" height="22.73"/>
          <polygon class="cls-1" points="300.99 36.16 300.99 58.18 296.28 58.18 296.28 40.86 293.45 40.86 293.45 58.18 281.2 58.18 281.2 25.68 285.9 25.68 285.9 53.47 288.74 53.47 288.74 36.16 300.99 36.16"/>
          <polygon class="cls-1" points="288.86 33.21 288.86 11.19 293.56 11.19 293.56 28.5 296.4 28.5 296.4 11.19 308.64 11.19 308.64 43.68 303.94 43.68 303.94 15.89 301.1 15.89 301.1 33.21 288.86 33.21"/>
        </g>
      </g>
      <g>
        <g>
          <polygon class="cls-1" points="296.4 0 296.4 3.54 293.56 3.54 293.56 0 288.86 0 288.86 8.25 301.1 8.25 301.1 0 296.4 0"/>
          <rect class="cls-1" x="303.94" width="4.7" height="8.25"/>
          <polygon class="cls-1" points="319.13 24.49 316.3 24.49 316.3 0 311.59 0 311.59 29.2 323.84 29.2 323.84 11.88 326.67 11.88 326.67 29.2 331.38 29.2 331.38 7.18 319.13 7.18 319.13 24.49"/>
          <rect class="cls-1" x="319.25" width="12.24" height="4.23"/>
          <rect class="cls-1" x="334.33" width="4.7" height="14.7"/>
        </g>
        <g>
          <rect class="cls-1" x="341.98" width="12.24" height=".21"/>
          <rect class="cls-1" x="357.07" width="4.7" height=".21"/>
        </g>
      </g>
      <g>
        <g>
          <polygon class="cls-1" points="232.66 143.44 232.66 165.46 227.96 165.46 227.96 148.14 225.12 148.14 225.12 165.46 212.88 165.46 212.88 132.96 217.58 132.96 217.58 160.75 220.42 160.75 220.42 143.44 232.66 143.44"/>
          <polygon class="cls-1" points="220.53 140.49 220.53 118.47 225.24 118.47 225.24 135.78 228.07 135.78 228.07 118.47 240.32 118.47 240.32 150.96 235.61 150.96 235.61 123.17 232.78 123.17 232.78 140.49 220.53 140.49"/>
          <polygon class="cls-1" points="255.4 164.39 255.4 186.41 250.69 186.41 250.69 169.1 247.86 169.1 247.86 186.41 235.61 186.41 235.61 153.92 240.32 153.92 240.32 181.71 243.15 181.71 243.15 164.39 255.4 164.39"/>
          <polygon class="cls-1" points="243.27 161.44 243.27 139.42 247.97 139.42 247.97 156.74 250.81 156.74 250.81 139.42 263.05 139.42 263.05 171.92 258.35 171.92 258.35 144.13 255.51 144.13 255.51 161.44 243.27 161.44"/>
        </g>
        <g>
          <polygon class="cls-1" points="263.05 114.45 263.05 136.47 258.35 136.47 258.35 119.15 255.51 119.15 255.51 136.47 243.27 136.47 243.27 103.97 247.97 103.97 247.97 131.76 250.81 131.76 250.81 114.45 263.05 114.45"/>
          <polygon class="cls-1" points="250.92 111.5 250.92 89.48 255.63 89.48 255.63 106.79 258.47 106.79 258.47 89.48 270.71 89.48 270.71 121.97 266.01 121.97 266.01 94.19 263.17 94.19 263.17 111.5 250.92 111.5"/>
          <polygon class="cls-1" points="285.79 135.4 285.79 157.42 281.09 157.42 281.09 140.11 278.25 140.11 278.25 157.42 266.01 157.42 266.01 124.93 270.71 124.93 270.71 152.72 273.55 152.72 273.55 135.4 285.79 135.4"/>
          <polygon class="cls-1" points="273.66 132.45 273.66 110.43 278.37 110.43 278.37 127.75 281.2 127.75 281.2 110.43 293.45 110.43 293.45 142.93 288.74 142.93 288.74 115.14 285.91 115.14 285.91 132.45 273.66 132.45"/>
        </g>
      </g>
      <g>
        <g>
          <polygon class="cls-1" points="278.13 185.34 278.13 207.36 273.43 207.36 273.43 190.05 270.59 190.05 270.59 207.36 258.35 207.36 258.35 174.87 263.05 174.87 263.05 202.66 265.89 202.66 265.89 185.34 278.13 185.34"/>
          <polygon class="cls-1" points="266 182.39 266 160.37 270.71 160.37 270.71 177.69 273.54 177.69 273.54 160.37 285.79 160.37 285.79 192.87 281.08 192.87 281.08 165.08 278.25 165.08 278.25 182.39 266 182.39"/>
          <polygon class="cls-1" points="300.87 206.3 300.87 228.32 296.16 228.32 296.16 211 293.33 211 293.33 228.32 281.08 228.32 281.08 195.82 285.79 195.82 285.79 223.61 288.62 223.61 288.62 206.3 300.87 206.3"/>
          <polygon class="cls-1" points="288.74 203.35 288.74 181.33 293.44 181.33 293.44 198.64 296.28 198.64 296.28 181.33 308.52 181.33 308.52 213.82 303.82 213.82 303.82 186.03 300.98 186.03 300.98 203.35 288.74 203.35"/>
        </g>
        <g>
          <polygon class="cls-1" points="308.52 156.35 308.52 178.37 303.82 178.37 303.82 161.06 300.98 161.06 300.98 178.37 288.74 178.37 288.74 145.88 293.44 145.88 293.44 173.67 296.28 173.67 296.28 156.35 308.52 156.35"/>
          <polygon class="cls-1" points="296.39 153.41 296.39 131.38 301.1 131.38 301.1 148.7 303.93 148.7 303.93 131.38 316.18 131.38 316.18 163.88 311.47 163.88 311.47 136.09 308.64 136.09 308.64 153.41 296.39 153.41"/>
          <polygon class="cls-1" points="331.26 177.31 331.26 199.33 326.56 199.33 326.56 182.01 323.72 182.01 323.72 199.33 311.47 199.33 311.47 166.83 316.18 166.83 316.18 194.62 319.01 194.62 319.01 177.31 331.26 177.31"/>
          <polygon class="cls-1" points="319.13 174.36 319.13 152.34 323.83 152.34 323.83 169.65 326.67 169.65 326.67 152.34 338.92 152.34 338.92 184.83 334.21 184.83 334.21 157.04 331.38 157.04 331.38 174.36 319.13 174.36"/>
        </g>
      </g>
      <g>
        <g>
          <polygon class="cls-1" points="293.45 85.29 293.45 107.31 288.74 107.31 288.74 89.99 285.91 89.99 285.91 107.31 273.66 107.31 273.66 74.81 278.37 74.81 278.37 102.6 281.2 102.6 281.2 85.29 293.45 85.29"/>
          <polygon class="cls-1" points="281.32 82.34 281.32 60.32 286.02 60.32 286.02 77.63 288.86 77.63 288.86 60.32 301.1 60.32 301.1 92.81 296.4 92.81 296.4 65.02 293.56 65.02 293.56 82.34 281.32 82.34"/>
          <polygon class="cls-1" points="316.18 106.24 316.18 128.26 311.48 128.26 311.48 110.95 308.64 110.95 308.64 128.26 296.4 128.26 296.4 95.77 301.1 95.77 301.1 123.55 303.94 123.55 303.94 106.24 316.18 106.24"/>
          <polygon class="cls-1" points="304.05 103.29 304.05 81.27 308.76 81.27 308.76 98.59 311.59 98.59 311.59 81.27 323.84 81.27 323.84 113.77 319.13 113.77 319.13 85.98 316.3 85.98 316.3 103.29 304.05 103.29"/>
        </g>
        <g>
          <polygon class="cls-1" points="323.84 56.3 323.84 78.32 319.13 78.32 319.13 61 316.3 61 316.3 78.32 304.05 78.32 304.05 45.82 308.76 45.82 308.76 73.61 311.59 73.61 311.59 56.3 323.84 56.3"/>
          <polygon class="cls-1" points="311.71 53.35 311.71 31.33 316.41 31.33 316.41 48.64 319.25 48.64 319.25 31.33 331.49 31.33 331.49 63.82 326.79 63.82 326.79 36.03 323.95 36.03 323.95 53.35 311.71 53.35"/>
          <polygon class="cls-1" points="346.57 77.25 346.57 99.27 341.87 99.27 341.87 81.96 339.03 81.96 339.03 99.27 326.79 99.27 326.79 66.78 331.49 66.78 331.49 94.57 334.33 94.57 334.33 77.25 346.57 77.25"/>
          <polygon class="cls-1" points="334.45 74.3 334.45 52.28 339.15 52.28 339.15 69.6 341.99 69.6 341.99 52.28 354.23 52.28 354.23 84.78 349.53 84.78 349.53 56.99 346.69 56.99 346.69 74.3 334.45 74.3"/>
        </g>
      </g>
      <g>
        <g>
          <polygon class="cls-1" points="338.92 127.19 338.92 149.21 334.21 149.21 334.21 131.9 331.38 131.9 331.38 149.21 319.13 149.21 319.13 116.72 323.83 116.72 323.83 144.51 326.67 144.51 326.67 127.19 338.92 127.19"/>
          <polygon class="cls-1" points="326.79 124.24 326.79 102.22 331.49 102.22 331.49 119.54 334.33 119.54 334.33 102.22 346.57 102.22 346.57 134.72 341.87 134.72 341.87 106.93 339.03 106.93 339.03 124.24 326.79 124.24"/>
          <polygon class="cls-1" points="361.65 148.14 361.65 170.17 356.95 170.17 356.95 152.85 354.11 152.85 354.11 170.17 341.87 170.17 341.87 137.67 346.57 137.67 346.57 165.46 349.41 165.46 349.41 148.14 361.65 148.14"/>
          <polygon class="cls-1" points="349.52 145.2 349.52 123.17 354.23 123.17 354.23 140.49 357.06 140.49 357.06 123.17 369.31 123.17 369.31 155.67 364.6 155.67 364.6 127.88 361.77 127.88 361.77 145.2 349.52 145.2"/>
        </g>
        <g>
          <polygon class="cls-1" points="369.31 98.2 369.31 120.22 364.6 120.22 364.6 102.91 361.77 102.91 361.77 120.22 349.52 120.22 349.52 87.73 354.23 87.73 354.23 115.52 357.06 115.52 357.06 98.2 369.31 98.2"/>
          <polygon class="cls-1" points="357.18 95.25 357.18 73.23 361.88 73.23 361.88 90.55 364.72 90.55 364.72 73.23 376.96 73.23 376.96 105.73 372.26 105.73 372.26 77.94 369.42 77.94 369.42 95.25 357.18 95.25"/>
          <polygon class="cls-1" points="392.04 119.15 392.04 141.18 387.34 141.18 387.34 123.86 384.5 123.86 384.5 141.18 372.26 141.18 372.26 108.68 376.96 108.68 376.96 136.47 379.8 136.47 379.8 119.15 392.04 119.15"/>
          <polygon class="cls-1" points="379.91 116.21 379.91 94.19 384.62 94.19 384.62 111.5 387.45 111.5 387.45 94.19 399.7 94.19 399.7 126.68 395 126.68 395 98.89 392.16 98.89 392.16 116.21 379.91 116.21"/>
        </g>
      </g>
      <g>
        <g>
          <g>
            <polygon class="cls-1" points="354.23 27.32 354.23 49.34 349.53 49.34 349.53 32.02 346.69 32.02 346.69 49.34 334.45 49.34 334.45 16.84 339.15 16.84 339.15 44.63 341.99 44.63 341.99 27.32 354.23 27.32"/>
            <polygon class="cls-1" points="342.1 24.37 342.1 2.35 346.81 2.35 346.81 19.66 349.64 19.66 349.64 2.35 361.89 2.35 361.89 34.84 357.18 34.84 357.18 7.05 354.35 7.05 354.35 24.37 342.1 24.37"/>
            <polygon class="cls-1" points="376.97 48.27 376.97 70.29 372.26 70.29 372.26 52.98 369.43 52.98 369.43 70.29 357.18 70.29 357.18 37.8 361.89 37.8 361.89 65.58 364.72 65.58 364.72 48.27 376.97 48.27"/>
            <polygon class="cls-1" points="364.84 45.32 364.84 23.3 369.54 23.3 369.54 40.62 372.38 40.62 372.38 23.3 384.62 23.3 384.62 55.8 379.92 55.8 379.92 28.01 377.08 28.01 377.08 45.32 364.84 45.32"/>
          </g>
          <g>
            <polygon class="cls-1" points="372.38 0 372.38 15.64 369.54 15.64 369.54 0 364.84 0 364.84 20.35 377.08 20.35 377.08 3.03 379.92 3.03 379.92 20.35 384.62 20.35 384.62 0 372.38 0"/>
            <rect class="cls-1" x="387.57" width="4.7" height="5.85"/>
            <polygon class="cls-1" points="399.76 19.28 395.11 19.28 395.11 36.6 392.28 36.6 392.28 8.81 387.57 8.81 387.57 41.3 399.76 41.3 399.76 19.28"/>
            <rect class="cls-1" x="395.23" width="4.53" height="16.33"/>
          </g>
        </g>
        <g>
          <polygon class="cls-1" points="399.7 69.22 399.7 91.24 395 91.24 395 73.93 392.16 73.93 392.16 91.24 379.91 91.24 379.91 58.75 384.62 58.75 384.62 86.54 387.46 86.54 387.46 69.22 399.7 69.22"/>
          <polygon class="cls-1" points="399.76 44.25 395.11 44.25 395.11 61.57 392.27 61.57 392.27 44.25 387.57 44.25 387.57 66.27 399.76 66.27 399.76 44.25"/>
        </g>
      </g>
      <g>
        <g>
          <polygon class="cls-1" points="323.84 226.69 323.84 248.71 319.14 248.71 319.14 231.4 316.3 231.4 316.3 248.71 304.05 248.71 304.05 216.22 308.76 216.22 308.76 244 311.6 244 311.6 226.69 323.84 226.69"/>
          <polygon class="cls-1" points="311.71 223.74 311.71 201.72 316.42 201.72 316.42 219.04 319.25 219.04 319.25 201.72 331.5 201.72 331.5 234.22 326.79 234.22 326.79 206.43 323.96 206.43 323.96 223.74 311.71 223.74"/>
          <polygon class="cls-1" points="339.04 259.01 339.04 252.35 341.87 252.35 341.87 259.01 346.58 259.01 346.58 247.64 334.33 247.64 334.33 259.01 339.04 259.01"/>
          <rect class="cls-1" x="326.79" y="237.17" width="4.7" height="21.84"/>
          <polygon class="cls-1" points="334.45 244.69 334.45 222.67 339.15 222.67 339.15 239.99 341.99 239.99 341.99 222.67 354.23 222.67 354.23 255.17 349.53 255.17 349.53 227.38 346.69 227.38 346.69 244.69 334.45 244.69"/>
        </g>
        <g>
          <polygon class="cls-1" points="354.23 197.7 354.23 219.72 349.53 219.72 349.53 202.41 346.69 202.41 346.69 219.72 334.45 219.72 334.45 187.23 339.15 187.23 339.15 215.02 341.99 215.02 341.99 197.7 354.23 197.7"/>
          <polygon class="cls-1" points="342.1 194.75 342.1 172.73 346.81 172.73 346.81 190.05 349.64 190.05 349.64 172.73 361.89 172.73 361.89 205.23 357.18 205.23 357.18 177.44 354.35 177.44 354.35 194.75 342.1 194.75"/>
          <polygon class="cls-1" points="376.97 218.65 376.97 240.67 372.26 240.67 372.26 223.36 369.43 223.36 369.43 240.67 357.18 240.67 357.18 208.18 361.89 208.18 361.89 235.97 364.72 235.97 364.72 218.65 376.97 218.65"/>
          <polygon class="cls-1" points="364.84 215.71 364.84 193.68 369.54 193.68 369.54 211 372.38 211 372.38 193.68 384.62 193.68 384.62 226.18 379.92 226.18 379.92 198.39 377.08 198.39 377.08 215.71 364.84 215.71"/>
        </g>
      </g>
      <g>
        <g>
          <rect class="cls-1" x="349.52" y="258.12" width="4.7" height=".89"/>
          <polygon class="cls-1" points="369.42 259.01 369.42 248.33 372.26 248.33 372.26 259.01 376.96 259.01 376.96 243.62 364.72 243.62 364.72 259.01 369.42 259.01"/>
          <rect class="cls-1" x="357.18" y="243.62" width="4.7" height="15.39"/>
        </g>
        <g>
          <polygon class="cls-1" points="392.16 259.01 392.16 244.31 395 244.31 395 259.01 399.7 259.01 399.7 239.6 387.46 239.6 387.46 256.92 384.62 256.92 384.62 229.13 379.92 229.13 379.92 259.01 392.16 259.01"/>
          <polygon class="cls-1" points="399.76 214.64 395.11 214.64 395.11 231.95 392.28 231.95 392.28 214.64 387.57 214.64 387.57 236.66 399.76 236.66 399.76 214.64"/>
        </g>
      </g>
      <g>
        <g>
          <polygon class="cls-1" points="384.62 168.54 384.62 190.56 379.92 190.56 379.92 173.24 377.08 173.24 377.08 190.56 364.84 190.56 364.84 158.06 369.54 158.06 369.54 185.85 372.38 185.85 372.38 168.54 384.62 168.54"/>
          <polygon class="cls-1" points="372.5 165.59 372.5 143.57 377.2 143.57 377.2 160.88 380.04 160.88 380.04 143.57 392.28 143.57 392.28 176.06 387.58 176.06 387.58 148.27 384.74 148.27 384.74 165.59 372.5 165.59"/>
          <polygon class="cls-1" points="399.76 189.49 395.12 189.49 395.12 206.81 392.28 206.81 392.28 179.02 387.58 179.02 387.58 211.51 399.76 211.51 399.76 189.49"/>
          <rect class="cls-1" x="395.23" y="164.52" width="4.53" height="22.02"/>
        </g>
        <rect class="cls-1" x="395.23" y="129.07" width="4.53" height="32.5"/>
      </g>
    </g>
  </g>
</svg>